<?xml version="1.0" encoding="UTF-8"?>
<svg version="1.1" xmlns="http://www.w3.org/2000/svg" width="179" height="49">
<path d="M0 0 C59.07 0 118.14 0 179 0 C179 16.17 179 32.34 179 49 C119.93 49 60.86 49 0 49 C0 32.83 0 16.66 0 0 Z " fill="#FBFEFD" transform="translate(0,0)"/>
<path d="M0 0 C3.31748199 1.22223021 4.80954591 2.74409183 6.375 5.875 C6.414992 7.87460012 6.41846799 9.87547242 6.375 11.875 C5.715 11.875 5.055 11.875 4.375 11.875 C4.045 12.865 3.715 13.855 3.375 14.875 C2.09625 14.99875 0.8175 15.1225 -0.5 15.25 C-3.97290936 15.56542399 -3.97290936 15.56542399 -6.625 17.875 C-8.625 17.6875 -8.625 17.6875 -10.625 16.875 C-11.285 15.885 -11.945 14.895 -12.625 13.875 C-12.955 14.205 -13.285 14.535 -13.625 14.875 C-15.29117115 14.91563832 -16.95888095 14.917721 -18.625 14.875 C-18.955 15.535 -19.285 16.195 -19.625 16.875 C-23.00148267 14.0894018 -24.50516043 12.72885691 -25.125 8.3125 C-24.35320513 3.00641026 -24.35320513 3.00641026 -21.625 0.875 C-18.15512416 0.37828976 -14.82179291 0.27660355 -11.625 1.875 C-11.625 2.535 -11.625 3.195 -11.625 3.875 C-8.99723611 3.38837706 -7.44545598 2.75530399 -5.1875 1.25 C-2.625 -0.125 -2.625 -0.125 0 0 Z " fill="#CCEEE8" transform="translate(29.625,7.125)"/>
<path d="M0 0 C12.05357143 -0.53571429 12.05357143 -0.53571429 15.6875 1.875 C18.22766599 4.20920659 18.89257744 5.0470084 19.2734375 8.42578125 C19.54965625 16.27676809 19.54965625 16.27676809 16.625 20.125 C12.6802176 22.94270171 10.70503291 23.11388333 5.875 23.0625 C2.966875 23.0315625 2.966875 23.0315625 0 23 C0 15.41 0 7.82 0 0 Z " fill="#0EB398" transform="translate(43,13)"/>
<path d="M0 0 C3 2.0625 3 2.0625 5 5 C5.65622237 9.08316143 5.37781677 11.22793965 3.5625 14.9375 C0.29952023 17.56380079 -1.77075324 17.67645366 -5.87109375 17.40625 C-8 17 -8 17 -10.5625 15.5625 C-12.71240656 11.73005787 -12.75551032 8.28909505 -12 4 C-9.26721728 -0.66850381 -5.0325219 -1.13605445 0 0 Z " fill="#0AB397" transform="translate(77,19)"/>
<path d="M0 0 C2.9375 1.4375 2.9375 1.4375 5 4 C5.89487669 8.27813857 5.70907738 11.73599249 3.5625 15.5625 C-0.26400751 17.70907738 -3.72186143 17.89487669 -8 17 C-11.31578076 14.33120085 -11.89008359 12.68392436 -12.5625 8.5 C-12 5 -12 5 -9.9375 2.0625 C-6.2404927 -0.53327109 -4.43355658 -0.71253588 0 0 Z " fill="#08B296" transform="translate(127,19)"/>
<path d="M0 0 C2.475 0.495 2.475 0.495 5 1 C5.99 3.97 6.98 6.94 8 10 C9.32 6.7 10.64 3.4 12 0 C13.32 0 14.64 0 16 0 C14.05797655 8.02071473 11.33160505 15.45450713 8 23 C6.02 23 4.04 23 2 23 C2 22.01 2 21.02 2 20 C2.99 19.67 3.98 19.34 5 19 C3.64746536 12.54945018 1.96939767 6.28894321 0 0 Z " fill="#0BB397" transform="translate(155,19)"/>
<path d="M0 0 C3.19448727 0.0696979 3.95878065 0.25033549 6.625 2.25 C8.125 4.375 8.125 4.375 8.125 6.375 C5.53471537 5.85694307 2.95111753 5.33548126 0.375 4.75 C-0.3675 4.62625 -1.11 4.5025 -1.875 4.375 C-3.29077477 5.55924326 -3.29077477 5.55924326 -2.9375 8.9375 C-2.916875 10.071875 -2.89625 11.20625 -2.875 12.375 C-0.47780568 13.05458603 -0.47780568 13.05458603 2.125 13.375 C2.785 12.715 3.445 12.055 4.125 11.375 C5.445 11.375 6.765 11.375 8.125 11.375 C6.375 16.25 6.375 16.25 4.125 17.375 C-3.01169065 17.95053957 -3.01169065 17.95053957 -6.3125 15.75 C-8.24731132 12.8090868 -8.80309193 10.89849544 -8.875 7.375 C-6.66616122 2.74695685 -5.25790675 0.50882969 0 0 Z " fill="#0CB297" transform="translate(92.875,18.625)"/>
<path d="M0 0 C6 0 6 0 9 2 C9.96048032 4.97921442 10.17728184 7.88094758 10 11 C8.4375 13.5625 8.4375 13.5625 6 15 C4.02 15 2.04 15 0 15 C0 10.05 0 5.1 0 0 Z " fill="#F9FEFD" transform="translate(48,17)"/>
<path d="M0 0 C1.32 0 2.64 0 4 0 C4 1.98 4 3.96 4 6 C5.32 6 6.64 6 8 6 C8 6.99 8 7.98 8 9 C6.68 9 5.36 9 4 9 C4.33 12.3 4.66 15.6 5 19 C5.99 19.33 6.98 19.66 8 20 C8 20.99 8 21.98 8 23 C5.125 23.125 5.125 23.125 2 23 C0 21 0 21 -0.1953125 18.1796875 C-0.17210938 17.08914062 -0.14890625 15.99859375 -0.125 14.875 C-0.10695313 13.77929688 -0.08890625 12.68359375 -0.0703125 11.5546875 C-0.04710938 10.71164063 -0.02390625 9.86859375 0 9 C-0.66 9 -1.32 9 -2 9 C-2 8.01 -2 7.02 -2 6 C-1.34 6 -0.68 6 0 6 C0 4.02 0 2.04 0 0 Z " fill="#08B295" transform="translate(105,13)"/>
<path d="M0 0 C1.32 0 2.64 0 4 0 C4.33 6.27 4.66 12.54 5 19 C5.66 19.33 6.32 19.66 7 20 C7 20.99 7 21.98 7 23 C5.02 23 3.04 23 1 23 C-0.2263757 20.54724859 -0.11415314 18.9494219 -0.09765625 16.2109375 C-0.09443359 15.26992188 -0.09121094 14.32890625 -0.08789062 13.359375 C-0.07951172 12.37453125 -0.07113281 11.3896875 -0.0625 10.375 C-0.05798828 9.38242187 -0.05347656 8.38984375 -0.04882812 7.3671875 C-0.03702145 4.9113984 -0.020554 2.45572896 0 0 Z " fill="#06B094" transform="translate(147,13)"/>
<path d="M0 0 C2.475 0.495 2.475 0.495 5 1 C7.72502965 0.62277985 7.72502965 0.62277985 10 0 C10 1.32 10 2.64 10 4 C9.360625 4.12375 8.72125 4.2475 8.0625 4.375 C7.0415625 4.684375 7.0415625 4.684375 6 5 C4.78306124 7.43387753 4.68040104 9.41838846 4.4375 12.125 C4.35371094 13.03507812 4.26992187 13.94515625 4.18359375 14.8828125 C4.12300781 15.58148438 4.06242188 16.28015625 4 17 C2.68 17 1.36 17 0 17 C0 11.39 0 5.78 0 0 Z " fill="#0EB196" transform="translate(135,19)"/>
<path d="M0 0 C1.33078101 6.41194487 1.33078101 6.41194487 -0.125 9 C-2.71896376 10.38344734 -4.25142257 9.81714464 -7 9 C-8.33078101 2.58805513 -8.33078101 2.58805513 -6.875 0 C-4.28103624 -1.38344734 -2.74857743 -0.81714464 0 0 Z " fill="#F3FDFC" transform="translate(127,23)"/>
<path d="M0 0 C1.9375 0.875 1.9375 0.875 3.9375 3.875 C3.6133631 7.19740324 3.32973697 8.48276303 0.9375 10.875 C-1.6875 10.5 -1.6875 10.5 -4.0625 9.875 C-5.39804084 3.44012141 -5.39804084 3.44012141 -3.875 0.875 C-2.0625 -0.125 -2.0625 -0.125 0 0 Z " fill="#F4FDFC" transform="translate(74.0625,22.125)"/>
<path d="M0 0 C2.5 0.125 2.5 0.125 3.5 1.125 C3.54080783 3.12458364 3.54254356 5.12545254 3.5 7.125 C1.52 7.125 -0.46 7.125 -2.5 7.125 C-2.88133299 5.1335944 -3.21325582 3.13220923 -3.5 1.125 C-2.5 0.125 -2.5 0.125 0 0 Z " fill="#8FD8CC" transform="translate(8.5,30.875)"/>
<path d="M0 0 C0.66 0.33 1.32 0.66 2 1 C2 1.66 2 2.32 2 3 C3.98 2.34 5.96 1.68 8 1 C7.67 1.99 7.34 2.98 7 4 C2.545 4.495 2.545 4.495 -2 5 C-1.34 3.35 -0.68 1.7 0 0 Z " fill="#45BFAB" transform="translate(26,18)"/>
</svg>
